<svg xmlns="http://www.w3.org/2000/svg" viewBox="0 0 800 1000" role="img" aria-label="Black Clover Premium Scale Figure — original artwork">
  <defs>
    <radialGradient id="p3b7bq-bg" cx="50%" cy="40%" r="75%">
      <stop offset="0" stop-color="#f59e0b" stop-opacity=".55"/>
      <stop offset=".55" stop-color="#1e1206"/>
      <stop offset="1" stop-color="#07070b"/>
    </radialGradient>
    <linearGradient id="p3b7bq-body" x1="0" y1="0" x2="1" y2="1">
      <stop offset="0" stop-color="#f59e0b"/>
      <stop offset="1" stop-color="#f472b6"/>
    </linearGradient>
    <linearGradient id="p3b7bq-base" x1="0" y1="0" x2="0" y2="1">
      <stop offset="0" stop-color="#2e2945"/>
      <stop offset="1" stop-color="#110f1a"/>
    </linearGradient>
    <filter id="p3b7bq-glow" x="-50%" y="-50%" width="200%" height="200%"><feGaussianBlur stdDeviation="14"/></filter>
    <linearGradient id="p3b7bq-floor" x1="0" y1="0" x2="0" y2="1">
      <stop offset="0" stop-color="#07070b" stop-opacity="0"/>
      <stop offset="1" stop-color="#07070b" stop-opacity=".7"/>
    </linearGradient>
    <pattern id="p3b7bq-grid" width="40" height="40" patternUnits="userSpaceOnUse">
      <path d="M40 0H0V40" fill="none" stroke="#fff" stroke-opacity=".04"/>
    </pattern>
  </defs>
  <rect width="800" height="1000" fill="url(#p3b7bq-bg)"/>
  <rect width="800" height="1000" fill="url(#p3b7bq-grid)"/>
  <circle cx="400" cy="460" r="260" fill="#f59e0b" opacity=".16" filter="url(#p3b7bq-glow)"/>
  <defs><linearGradient id="p3b7bq-hair" x1="0" y1="0" x2="0.4" y2="1">
      <stop offset="0" stop-color="#eeecf4"/>
      <stop offset=".55" stop-color="#e8e6f0"/>
      <stop offset="1" stop-color="#8b8a90"/>
    </linearGradient>
    <radialGradient id="p3b7bq-iris" cx="50%" cy="30%" r="70%">
      <stop offset="0" stop-color="#875706"/>
      <stop offset=".6" stop-color="#f59e0b"/>
      <stop offset="1" stop-color="#faca79"/>
    </radialGradient>
    <linearGradient id="p3b7bq-cloth" x1="0" y1="0" x2="1" y2="1">
      <stop offset="0" stop-color="#5e5492"/>
      <stop offset=".6" stop-color="#3b2f7a"/>
      <stop offset="1" stop-color="#231c49"/>
    </linearGradient>
    <linearGradient id="p3b7bq-blade" x1="0" y1="0" x2="1" y2="0">
      <stop offset="0" stop-color="#ffffff"/>
      <stop offset="1" stop-color="#f472b6"/>
    </linearGradient>
    <filter id="p3b7bq-soft" x="-80%" y="-80%" width="260%" height="260%"><feGaussianBlur stdDeviation="12"/></filter></defs><g transform="translate(400 400) scale(1.75) translate(-400 -380)"><ellipse cx="400" cy="470" rx="250" ry="330" fill="#f472b6" opacity=".14" filter="url(#p3b7bq-soft)"/>
    <path d="M300 0 L500 0 L640 820 L160 820Z" fill="#fff" opacity=".025"/><g><g transform="translate(400 800) scale(1.12) translate(-400 -800)"><ellipse cx="400" cy="858" rx="236" ry="40" fill="#000" opacity=".5"/>
    <path d="M182 800 L182 836 Q400 880 618 836 L618 800Z" fill="url(#p3b7bq-base)"/>
    <ellipse cx="400" cy="800" rx="218" ry="36" fill="#262038"/>
    <ellipse cx="400" cy="800" rx="218" ry="36" fill="none" stroke="#f472b6" stroke-opacity=".55" stroke-width="2.5"/>
    <ellipse cx="400" cy="800" rx="196" ry="28" fill="none" stroke="#fff" stroke-opacity=".06" stroke-width="8"/><g>
    
    <g transform="translate(400 300)"><path d="M-52 -48 C-120 -60 -128 40 -110 114.6 C-100 163.7 -140 183.7 -120 203.7 C-70 163.7 -74 81.8 -62 10Z" fill="url(#p3b7bq-hair)"/>
             <circle cx="-56" cy="-50" r="11" fill="#f0abfc"/><path d="M52 -48 C120 -60 128 40 110 114.6 C100 163.7 140 183.7 120 203.7 C70 163.7 74 81.8 62 10Z" fill="url(#p3b7bq-hair)"/>
             <circle cx="56" cy="-50" r="11" fill="#f0abfc"/><path d="M-64 -10 C-80 -96 80 -96 64 -10 L60 40 L-60 40Z" fill="url(#p3b7bq-hair)"/></g>
    <path d="M346 404 C300 520 250 660 214 780 Q330 800 400 760 Q470 800 586 780 C550 660 500 520 454 404Z" fill="#845e8b"/>
       <path d="M346 404 C300 520 250 660 214 780" stroke="#f0abfc" stroke-width="3" fill="none" opacity=".7"/>
    
    <path d="M362 520 C322 600 272 712 246 792 Q400 822 554 792 C528 712 478 600 438 520Z" fill="url(#p3b7bq-cloth)"/>
          <path d="M382 540 Q300 680 285 800" stroke="#261f4f" stroke-width="3" fill="none" opacity=".45"/><path d="M391 540 Q350 680 342.5 800" stroke="#261f4f" stroke-width="3" fill="none" opacity=".45"/><path d="M400 540 Q400 680 400 800" stroke="#261f4f" stroke-width="3" fill="none" opacity=".45"/><path d="M409 540 Q450 680 457.5 800" stroke="#261f4f" stroke-width="3" fill="none" opacity=".45"/><path d="M418 540 Q500 680 515 800" stroke="#261f4f" stroke-width="3" fill="none" opacity=".45"/>
          <path d="M246 792 Q400 822 554 792" stroke="#f0abfc" stroke-width="6" fill="none"/>
    <path d="M344 408 Q318 470 328 548" stroke="#352a6e" stroke-width="26" fill="none" stroke-linecap="round"/>
    <circle cx="328" cy="556" r="12" fill="#b07a56"/>
    
    <rect x="388" y="356" width="24" height="40" fill="#a2704f"/>
    <path d="M338 412 Q350 394 374 390 L426 390 Q450 394 462 412 L454 470 Q442 506 442 522 L358 522 Q358 506 346 470Z" fill="url(#p3b7bq-cloth)"/>
    <path d="M374 390 L400 436 L426 390" fill="#f0abfc" opacity=".9"/>
    <path d="M378 390 L400 428 L422 390" fill="#b07a56"/>
    <rect x="354" y="508" width="92" height="16" rx="4" fill="#f0abfc"/>
    <rect x="392" y="506" width="16" height="20" rx="3" fill="#9c6fa4"/>
    <path d="M368 450 Q400 462 432 450" stroke="#261f4f" stroke-width="2.5" fill="none" opacity=".6"/>
    
    <g transform="translate(400 300)"><g>
    <path d="M-52 -6 C-54 32 -30 62 0 72 C30 62 54 32 52 -6 C52 -60 -52 -60 -52 -6Z" fill="#b07a56"/>
    <path d="M-52 -6 C-52 6 -46 14 -40 18 Q0 4 40 18 C46 14 52 6 52 -6 C40 -18 -40 -18 -52 -6Z" fill="#9b6b4c" opacity=".55"/>
    <path d="M-34 -24 Q-22 -31 -10 -26" stroke="#97969c" stroke-width="2.6" fill="none" stroke-linecap="round"/>
    <path d="M34 -24 Q22 -31 10 -26" stroke="#97969c" stroke-width="2.6" fill="none" stroke-linecap="round"/>
    <g>
    <path d="M-34 2 Q-21 -14 -8 -2 Q-9 22 -21 27 Q-33 22 -34 2Z" fill="#fff"/>
    <ellipse cx="-21" cy="9" rx="11.5" ry="16" fill="url(#p3b7bq-iris)"/>
    <ellipse cx="-21" cy="11" rx="5.5" ry="8.5" fill="#160f24"/>
    <circle cx="-17" cy="2" r="4.6" fill="#fff"/>
    <circle cx="-25" cy="17" r="2.2" fill="#fff" opacity=".85"/>
    <path d="M-37 0 Q-21 -19 -6 -5" stroke="#1d1428" stroke-width="4.5" fill="none" stroke-linecap="round"/>
    <path d="M-37 0 l-6 -5" stroke="#1d1428" stroke-width="3" stroke-linecap="round"/>
    <path d="M-12 25 Q-21 29 -29 23" stroke="#5a4366" stroke-width="1.4" fill="none" opacity=".6"/>
  </g>
    <path d="M8 4 Q21 14 34 4" stroke="#2a1e3a" stroke-width="3.5" fill="none" stroke-linecap="round"/>
    <path d="M1 30 l2 5" stroke="#7b553c" stroke-width="1.6" stroke-linecap="round"/>
    <ellipse cx="-31" cy="33" rx="9" ry="4" fill="#f58aa4" opacity=".45"/>
    <ellipse cx="31" cy="33" rx="9" ry="4" fill="#f58aa4" opacity=".45"/>
    <path d="M-8 45 Q0 52 8 45" stroke="#9a4a56" stroke-width="2.4" fill="none" stroke-linecap="round"/>
    <path d="M-62 -4 C-70 -72 -30 -90 0 -88 C30 -90 70 -72 62 -4 L54 0 L46 -26 L38 8 L26 -24 L14 4 L4 -30 L-8 6 L-18 -26 L-30 8 L-40 -24 L-50 2Z" fill="url(#p3b7bq-hair)"/>
         <path d="M-62 -8 C-72 30 -68 74 -58 104 C-50 74 -48 30 -46 -2Z" fill="url(#p3b7bq-hair)"/>
         <path d="M62 -8 C72 30 68 74 58 104 C50 74 48 30 46 -2Z" fill="url(#p3b7bq-hair)"/>
    <path d="M-40 -56 Q0 -74 40 -56" stroke="#fff" stroke-opacity=".35" stroke-width="5" fill="none" stroke-linecap="round"/>
    
  </g></g>
    <path d="M456 408 L516.3 393.4 L568.0 346.3" stroke="#352a6e" stroke-width="24" fill="none" stroke-linecap="round" stroke-linejoin="round"/>
    <circle cx="568.0" cy="346.3" r="12" fill="#b07a56"/>
    
    <g transform="translate(568.0 346.3) rotate(47.7)">
        <rect x="-4" y="-210" width="8" height="200" rx="3" fill="url(#p3b7bq-blade)"/>
        <rect x="-4" y="-210" width="8" height="200" rx="3" fill="#f472b6" opacity=".35" filter="url(#p3b7bq-soft)"/>
        <rect x="-22" y="-12" width="44" height="8" rx="3" fill="#f0abfc"/>
        <rect x="-4" y="-4" width="8" height="34" rx="3" fill="#292155"/>
      </g>
    
  </g></g></g><circle cx="571.2" cy="259.8" r="2.9" fill="#f472b6" opacity="0.5"/><circle cx="623.8" cy="154.5" r="3.1" fill="#f472b6" opacity="0.7"/><path d="M239.9 519.3 L242.3 527.4 L239.9 535.6 L237.4 527.4Z" fill="#fff" opacity="0.6"/><circle cx="489.6" cy="522.7" r="2.1" fill="#f472b6" opacity="0.4"/><path d="M472.5 677.4 L475.3 686.8 L472.5 696.1 L469.7 686.8Z" fill="#fff" opacity="0.6"/><circle cx="576.6" cy="572.0" r="3.3" fill="#f472b6" opacity="0.3"/><circle cx="258.7" cy="642.1" r="5.8" fill="#f472b6" opacity="0.7"/><path d="M476.9 247.0 L479.0 254.1 L476.9 261.1 L474.8 254.1Z" fill="#fff" opacity="0.7"/><circle cx="209.1" cy="137.1" r="3.6" fill="#f472b6" opacity="0.6"/><circle cx="681.4" cy="176.8" r="5.1" fill="#f472b6" opacity="0.4"/><path d="M156.7 309.6 L158.3 314.6 L156.7 319.7 L155.2 314.6Z" fill="#fff" opacity="0.7"/><path d="M177.2 570.8 L179.0 576.9 L177.2 583.0 L175.4 576.9Z" fill="#fff" opacity="0.8"/><circle cx="260.0" cy="392.0" r="6.0" fill="#f472b6" opacity="0.6"/><circle cx="114.1" cy="285.1" r="5.9" fill="#f472b6" opacity="0.7"/><circle cx="385.5" cy="252.8" r="2.6" fill="#f472b6" opacity="0.5"/><circle cx="169.4" cy="180.1" r="2.4" fill="#f472b6" opacity="0.6"/></g>
  <rect y="930" width="800" height="70" fill="url(#p3b7bq-floor)"/>
</svg>
