<svg xmlns="http://www.w3.org/2000/svg" viewBox="0 0 800 1000" role="img" aria-label="My Hero Academia Premium Scale Figure — original artwork">
  <defs>
    <radialGradient id="p1s77w45-bg" cx="50%" cy="40%" r="75%">
      <stop offset="0" stop-color="#d946ef" stop-opacity=".55"/>
      <stop offset=".55" stop-color="#1c0a24"/>
      <stop offset="1" stop-color="#07070b"/>
    </radialGradient>
    <linearGradient id="p1s77w45-body" x1="0" y1="0" x2="1" y2="1">
      <stop offset="0" stop-color="#d946ef"/>
      <stop offset="1" stop-color="#a78bfa"/>
    </linearGradient>
    <linearGradient id="p1s77w45-base" x1="0" y1="0" x2="0" y2="1">
      <stop offset="0" stop-color="#2e2945"/>
      <stop offset="1" stop-color="#110f1a"/>
    </linearGradient>
    <filter id="p1s77w45-glow" x="-50%" y="-50%" width="200%" height="200%"><feGaussianBlur stdDeviation="14"/></filter>
    <linearGradient id="p1s77w45-floor" x1="0" y1="0" x2="0" y2="1">
      <stop offset="0" stop-color="#07070b" stop-opacity="0"/>
      <stop offset="1" stop-color="#07070b" stop-opacity=".7"/>
    </linearGradient>
    <pattern id="p1s77w45-grid" width="40" height="40" patternUnits="userSpaceOnUse">
      <path d="M40 0H0V40" fill="none" stroke="#fff" stroke-opacity=".04"/>
    </pattern>
  </defs>
  <rect width="800" height="1000" fill="url(#p1s77w45-bg)"/>
  <rect width="800" height="1000" fill="url(#p1s77w45-grid)"/>
  <circle cx="400" cy="460" r="260" fill="#d946ef" opacity=".16" filter="url(#p1s77w45-glow)"/>
  <defs><linearGradient id="p1s77w45-hair" x1="0" y1="0" x2="0.4" y2="1">
      <stop offset="0" stop-color="#54545b"/>
      <stop offset=".55" stop-color="#1b1b24"/>
      <stop offset="1" stop-color="#101016"/>
    </linearGradient>
    <radialGradient id="p1s77w45-iris" cx="50%" cy="30%" r="70%">
      <stop offset="0" stop-color="#791515"/>
      <stop offset=".6" stop-color="#dc2626"/>
      <stop offset="1" stop-color="#ec8888"/>
    </radialGradient>
    <linearGradient id="p1s77w45-cloth" x1="0" y1="0" x2="1" y2="1">
      <stop offset="0" stop-color="#d0545d"/>
      <stop offset=".6" stop-color="#c62f3a"/>
      <stop offset="1" stop-color="#771c23"/>
    </linearGradient>
    <linearGradient id="p1s77w45-blade" x1="0" y1="0" x2="1" y2="0">
      <stop offset="0" stop-color="#ffffff"/>
      <stop offset="1" stop-color="#ffd166"/>
    </linearGradient>
    <filter id="p1s77w45-soft" x="-80%" y="-80%" width="260%" height="260%"><feGaussianBlur stdDeviation="12"/></filter></defs><ellipse cx="400" cy="470" rx="250" ry="330" fill="#ffd166" opacity=".14" filter="url(#p1s77w45-soft)"/>
    <path d="M300 0 L500 0 L640 820 L160 820Z" fill="#fff" opacity=".025"/>
    <g><g transform="translate(400 800) scale(1.12) translate(-400 -800)"><ellipse cx="400" cy="858" rx="236" ry="40" fill="#000" opacity=".5"/>
    <path d="M182 800 L182 836 Q400 880 618 836 L618 800Z" fill="url(#p1s77w45-base)"/>
    <ellipse cx="400" cy="800" rx="218" ry="36" fill="#262038"/>
    <ellipse cx="400" cy="800" rx="218" ry="36" fill="none" stroke="#ffd166" stroke-opacity=".55" stroke-width="2.5"/>
    <ellipse cx="400" cy="800" rx="196" ry="28" fill="none" stroke="#fff" stroke-opacity=".06" stroke-width="8"/><g>
    <path d="M400 150 C290 230 240 420 262 600 C278 712 330 790 400 806 C470 790 522 712 538 600 C560 420 510 230 400 150Z" fill="#ffd166" opacity=".22" filter="url(#p1s77w45-soft)"/>
       <path d="M400 168 C306 246 262 420 280 596 C294 700 340 776 400 790 C460 776 506 700 520 596 C538 420 494 246 400 168Z" fill="none" stroke="#ffd166" stroke-width="3" opacity=".55"/>
    
    
    <g transform="translate(400 300)"><path d="M-68 -12 C-84 -100 84 -100 68 -12 L74 52 Q66 78 44 72 L-44 72 Q-66 78 -74 52Z" fill="url(#p1s77w45-hair)"/></g>
    <path d="M346 404 C300 520 250 660 214 780 Q330 800 400 760 Q470 800 586 780 C550 660 500 520 454 404Z" fill="#868687"/>
       <path d="M346 404 C300 520 250 660 214 780" stroke="#f3f4f6" stroke-width="3" fill="none" opacity=".7"/>
    <path d="M340.6 610 L370.6 610 L350.0 770 L326.0 770Z" fill="#811f26"/>
              <path d="M322.0 718 L354.0 718 L356.0 788 Q338.0 796 316.0 790Z" fill="#868687"/>
              <circle cx="346.8" cy="690" r="13" fill="#f3f4f6" stroke="#929294" stroke-width="2"/><path d="M429.4 610 L459.4 610 L474.0 770 L450.0 770Z" fill="#811f26"/>
              <path d="M446.0 718 L478.0 718 L480.0 788 Q462.0 796 440.0 790Z" fill="#868687"/>
              <circle cx="453.2" cy="690" r="13" fill="#f3f4f6" stroke="#929294" stroke-width="2"/>
    <path d="M356 516 L444 516 L462 600 L338 600Z" fill="#9e262e"/>
          <path d="M356 516 L444 516 L452 556 L348 556Z" fill="#f3f4f6" opacity=".85"/>
    
    <path d="M344 408 Q318 470 328 548" stroke="#b22a34" stroke-width="26" fill="none" stroke-linecap="round"/>
    <circle cx="328" cy="556" r="12" fill="#d9a37f"/>
    <circle cx="326" cy="476" r="11" fill="#f3f4f6" stroke="#929294" stroke-width="2"/>
    
    <rect x="388" y="356" width="24" height="40" fill="#c89675"/>
    <path d="M338 412 Q350 394 374 390 L426 390 Q450 394 462 412 L454 470 Q442 506 442 522 L358 522 Q358 506 346 470Z" fill="url(#p1s77w45-cloth)"/>
    <path d="M374 390 L400 436 L426 390" fill="#f3f4f6" opacity=".9"/>
    <path d="M378 390 L400 428 L422 390" fill="#d9a37f"/>
    <rect x="354" y="508" width="92" height="16" rx="4" fill="#f3f4f6"/>
    <rect x="392" y="506" width="16" height="20" rx="3" fill="#9e9fa0"/>
    <path d="M352 430 L448 430 L440 486 L360 486Z" fill="#cf4e58" stroke="#f3f4f6" stroke-width="3"/><circle cx="400" cy="456" r="10" fill="#ffd166"/><circle cx="400" cy="456" r="22" fill="#ffd166" opacity=".35" filter="url(#p1s77w45-soft)"/>
    
    <ellipse cx="340" cy="406" rx="30" ry="22" fill="#f3f4f6" stroke="#929294" stroke-width="2"/>
       <ellipse cx="460" cy="406" rx="30" ry="22" fill="#f3f4f6" stroke="#929294" stroke-width="2"/>
    <g transform="translate(400 300)"><g>
    <path d="M-52 -6 C-54 32 -30 62 0 72 C30 62 54 32 52 -6 C52 -60 -52 -60 -52 -6Z" fill="#d9a37f"/>
    <path d="M-52 -6 C-52 6 -46 14 -40 18 Q0 4 40 18 C46 14 52 6 52 -6 C40 -18 -40 -18 -52 -6Z" fill="#bf8f70" opacity=".55"/>
    <path d="M-34 -24 Q-22 -31 -10 -26" stroke="#121217" stroke-width="2.6" fill="none" stroke-linecap="round"/>
    <path d="M34 -24 Q22 -31 10 -26" stroke="#121217" stroke-width="2.6" fill="none" stroke-linecap="round"/>
    <g>
    <path d="M-34 2 Q-21 -14 -8 -2 Q-9 22 -21 27 Q-33 22 -34 2Z" fill="#fff"/>
    <ellipse cx="-21" cy="9" rx="11.5" ry="16" fill="url(#p1s77w45-iris)"/>
    <ellipse cx="-21" cy="11" rx="5.5" ry="8.5" fill="#160f24"/>
    <circle cx="-17" cy="2" r="4.6" fill="#fff"/>
    <circle cx="-25" cy="17" r="2.2" fill="#fff" opacity=".85"/>
    <path d="M-37 0 Q-21 -19 -6 -5" stroke="#1d1428" stroke-width="4.5" fill="none" stroke-linecap="round"/>
    <path d="M-37 0 l-6 -5" stroke="#1d1428" stroke-width="3" stroke-linecap="round"/>
    <path d="M-12 25 Q-21 29 -29 23" stroke="#5a4366" stroke-width="1.4" fill="none" opacity=".6"/>
  </g>
    <g>
    <path d="M34 2 Q21 -14 8 -2 Q9 22 21 27 Q33 22 34 2Z" fill="#fff"/>
    <ellipse cx="21" cy="9" rx="11.5" ry="16" fill="url(#p1s77w45-iris)"/>
    <ellipse cx="21" cy="11" rx="5.5" ry="8.5" fill="#160f24"/>
    <circle cx="17" cy="2" r="4.6" fill="#fff"/>
    <circle cx="25" cy="17" r="2.2" fill="#fff" opacity=".85"/>
    <path d="M37 0 Q21 -19 6 -5" stroke="#1d1428" stroke-width="4.5" fill="none" stroke-linecap="round"/>
    <path d="M37 0 l6 -5" stroke="#1d1428" stroke-width="3" stroke-linecap="round"/>
    <path d="M12 25 Q21 29 29 23" stroke="#5a4366" stroke-width="1.4" fill="none" opacity=".6"/>
  </g>
    <path d="M1 30 l2 5" stroke="#987259" stroke-width="1.6" stroke-linecap="round"/>
    <ellipse cx="-31" cy="33" rx="9" ry="4" fill="#f58aa4" opacity=".45"/>
    <ellipse cx="31" cy="33" rx="9" ry="4" fill="#f58aa4" opacity=".45"/>
    <path d="M-8 45 Q0 52 8 45" stroke="#9a4a56" stroke-width="2.4" fill="none" stroke-linecap="round"/>
    <path d="M-62 -4 C-70 -72 -30 -90 0 -88 C30 -90 70 -72 62 -4 L54 0 L46 -26 L38 8 L26 -24 L14 4 L4 -30 L-8 6 L-18 -26 L-30 8 L-40 -24 L-50 2Z" fill="url(#p1s77w45-hair)"/>
         <path d="M-62 -8 C-72 30 -68 74 -58 104 C-50 74 -48 30 -46 -2Z" fill="url(#p1s77w45-hair)"/>
         <path d="M62 -8 C72 30 68 74 58 104 C50 74 48 30 46 -2Z" fill="url(#p1s77w45-hair)"/>
    <path d="M-40 -56 Q0 -74 40 -56" stroke="#fff" stroke-opacity=".35" stroke-width="5" fill="none" stroke-linecap="round"/>
    
  </g></g>
    <path d="M456 408 L480.9 351.2 L474.8 281.5" stroke="#b22a34" stroke-width="24" fill="none" stroke-linecap="round" stroke-linejoin="round"/>
    <circle cx="474.8" cy="281.5" r="12" fill="#d9a37f"/>
    <circle cx="480.9" cy="351.2" r="11" fill="#f3f4f6" stroke="#929294" stroke-width="2"/>
    
    
  </g></g></g><circle cx="521.9" cy="597.9" r="4.0" fill="#ffd166" opacity="0.7"/><circle cx="499.3" cy="513.6" r="4.1" fill="#ffd166" opacity="0.5"/><circle cx="563.2" cy="703.0" r="3.1" fill="#ffd166" opacity="0.4"/><circle cx="604.5" cy="397.4" r="2.5" fill="#ffd166" opacity="0.7"/><path d="M164.2 194.2 L167.2 204.3 L164.2 214.5 L161.1 204.3Z" fill="#fff" opacity="0.8"/><path d="M598.9 291.4 L600.6 297.1 L598.9 302.8 L597.2 297.1Z" fill="#fff" opacity="0.5"/><circle cx="663.7" cy="586.5" r="2.6" fill="#ffd166" opacity="0.3"/><circle cx="180.8" cy="436.2" r="4.1" fill="#ffd166" opacity="0.3"/><circle cx="566.6" cy="373.3" r="5.6" fill="#ffd166" opacity="0.6"/><circle cx="462.0" cy="353.1" r="5.9" fill="#ffd166" opacity="0.4"/><circle cx="649.0" cy="708.0" r="4.0" fill="#ffd166" opacity="0.7"/><circle cx="515.3" cy="397.7" r="4.9" fill="#ffd166" opacity="0.4"/><circle cx="252.4" cy="642.8" r="2.8" fill="#ffd166" opacity="0.3"/><circle cx="445.6" cy="463.0" r="2.9" fill="#ffd166" opacity="0.7"/><path d="M475.8 613.1 L478.6 622.2 L475.8 631.2 L473.1 622.2Z" fill="#fff" opacity="0.5"/><path d="M236.8 187.0 L239.3 195.2 L236.8 203.3 L234.4 195.2Z" fill="#fff" opacity="0.4"/>
  <rect y="930" width="800" height="70" fill="url(#p1s77w45-floor)"/>
</svg>
