<svg xmlns="http://www.w3.org/2000/svg" viewBox="0 0 800 1000" role="img" aria-label="Neon Ronin Vanguard 1/12 Action Figure — original artwork">
  <defs>
    <radialGradient id="p1ah8ifg-bg" cx="50%" cy="40%" r="75%">
      <stop offset="0" stop-color="#22d3ee" stop-opacity=".55"/>
      <stop offset=".55" stop-color="#061c26"/>
      <stop offset="1" stop-color="#07070b"/>
    </radialGradient>
    <linearGradient id="p1ah8ifg-body" x1="0" y1="0" x2="1" y2="1">
      <stop offset="0" stop-color="#22d3ee"/>
      <stop offset="1" stop-color="#818cf8"/>
    </linearGradient>
    <linearGradient id="p1ah8ifg-base" x1="0" y1="0" x2="0" y2="1">
      <stop offset="0" stop-color="#2e2945"/>
      <stop offset="1" stop-color="#110f1a"/>
    </linearGradient>
    <filter id="p1ah8ifg-glow" x="-50%" y="-50%" width="200%" height="200%"><feGaussianBlur stdDeviation="14"/></filter>
    <linearGradient id="p1ah8ifg-floor" x1="0" y1="0" x2="0" y2="1">
      <stop offset="0" stop-color="#07070b" stop-opacity="0"/>
      <stop offset="1" stop-color="#07070b" stop-opacity=".7"/>
    </linearGradient>
    <pattern id="p1ah8ifg-grid" width="40" height="40" patternUnits="userSpaceOnUse">
      <path d="M40 0H0V40" fill="none" stroke="#fff" stroke-opacity=".04"/>
    </pattern>
  </defs>
  <rect width="800" height="1000" fill="url(#p1ah8ifg-bg)"/>
  <rect width="800" height="1000" fill="url(#p1ah8ifg-grid)"/>
  <circle cx="400" cy="460" r="260" fill="#22d3ee" opacity=".16" filter="url(#p1ah8ifg-glow)"/>
  <defs><linearGradient id="p1ah8ifg-hair" x1="0" y1="0" x2="0.4" y2="1">
      <stop offset="0" stop-color="#6ddbb3"/>
      <stop offset=".55" stop-color="#3ccf9a"/>
      <stop offset="1" stop-color="#247c5c"/>
    </linearGradient>
    <radialGradient id="p1ah8ifg-iris" cx="50%" cy="30%" r="70%">
      <stop offset="0" stop-color="#875706"/>
      <stop offset=".6" stop-color="#f59e0b"/>
      <stop offset="1" stop-color="#faca79"/>
    </radialGradient>
    <linearGradient id="p1ah8ifg-cloth" x1="0" y1="0" x2="1" y2="1">
      <stop offset="0" stop-color="#515086"/>
      <stop offset=".6" stop-color="#2b2a6b"/>
      <stop offset="1" stop-color="#1a1940"/>
    </linearGradient>
    <linearGradient id="p1ah8ifg-blade" x1="0" y1="0" x2="1" y2="0">
      <stop offset="0" stop-color="#ffffff"/>
      <stop offset="1" stop-color="#818cf8"/>
    </linearGradient>
    <filter id="p1ah8ifg-soft" x="-80%" y="-80%" width="260%" height="260%"><feGaussianBlur stdDeviation="12"/></filter></defs><ellipse cx="400" cy="470" rx="250" ry="330" fill="#818cf8" opacity=".14" filter="url(#p1ah8ifg-soft)"/>
    <path d="M300 0 L500 0 L640 820 L160 820Z" fill="#fff" opacity=".025"/>
    <g><g transform="translate(400 800) scale(1.12) translate(-400 -800)"><ellipse cx="400" cy="858" rx="236" ry="40" fill="#000" opacity=".5"/>
    <path d="M182 800 L182 836 Q400 880 618 836 L618 800Z" fill="url(#p1ah8ifg-base)"/>
    <ellipse cx="400" cy="800" rx="218" ry="36" fill="#262038"/>
    <ellipse cx="400" cy="800" rx="218" ry="36" fill="none" stroke="#818cf8" stroke-opacity=".55" stroke-width="2.5"/>
    <ellipse cx="400" cy="800" rx="196" ry="28" fill="none" stroke="#fff" stroke-opacity=".06" stroke-width="8"/><g>
    
    
    
    
    <g transform="translate(400 300)"><path d="M-68 -12 C-84 -100 84 -100 68 -12 L74 52 Q66 78 44 72 L-44 72 Q-66 78 -74 52Z" fill="url(#p1ah8ifg-hair)"/></g>
    
    <path d="M340.6 610 L370.6 610 L350.0 770 L326.0 770Z" fill="#1c1b46"/>
              <path d="M322.0 718 L354.0 718 L356.0 788 Q338.0 796 316.0 790Z" fill="#806c3a"/>
              <circle cx="346.8" cy="690" r="13" fill="#e8c46a" stroke="#8b7640" stroke-width="2"/><path d="M429.4 610 L459.4 610 L474.0 770 L450.0 770Z" fill="#1c1b46"/>
              <path d="M446.0 718 L478.0 718 L480.0 788 Q462.0 796 440.0 790Z" fill="#806c3a"/>
              <circle cx="453.2" cy="690" r="13" fill="#e8c46a" stroke="#8b7640" stroke-width="2"/>
    <path d="M356 516 L444 516 L462 600 L338 600Z" fill="#222256"/>
          <path d="M356 516 L444 516 L452 556 L348 556Z" fill="#e8c46a" opacity=".85"/>
    
    <path d="M344 408 Q318 470 328 548" stroke="#272660" stroke-width="26" fill="none" stroke-linecap="round"/>
    <circle cx="328" cy="556" r="12" fill="#b07a56"/>
    <circle cx="326" cy="476" r="11" fill="#e8c46a" stroke="#8b7640" stroke-width="2"/>
    
    <rect x="388" y="356" width="24" height="40" fill="#a2704f"/>
    <path d="M338 412 Q350 394 374 390 L426 390 Q450 394 462 412 L454 470 Q442 506 442 522 L358 522 Q358 506 346 470Z" fill="url(#p1ah8ifg-cloth)"/>
    <path d="M374 390 L400 436 L426 390" fill="#e8c46a" opacity=".9"/>
    <path d="M378 390 L400 428 L422 390" fill="#b07a56"/>
    <rect x="354" y="508" width="92" height="16" rx="4" fill="#e8c46a"/>
    <rect x="392" y="506" width="16" height="20" rx="3" fill="#977f45"/>
    <path d="M352 430 L448 430 L440 486 L360 486Z" fill="#4b4a81" stroke="#e8c46a" stroke-width="3"/><circle cx="400" cy="456" r="10" fill="#818cf8"/><circle cx="400" cy="456" r="22" fill="#818cf8" opacity=".35" filter="url(#p1ah8ifg-soft)"/>
    
    <ellipse cx="340" cy="406" rx="30" ry="22" fill="#e8c46a" stroke="#8b7640" stroke-width="2"/>
       <ellipse cx="460" cy="406" rx="30" ry="22" fill="#e8c46a" stroke="#8b7640" stroke-width="2"/>
    <g transform="translate(400 300)"><g>
    <path d="M-52 -6 C-54 32 -30 62 0 72 C30 62 54 32 52 -6 C52 -60 -52 -60 -52 -6Z" fill="#b07a56"/>
    <path d="M-52 -6 C-52 6 -46 14 -40 18 Q0 4 40 18 C46 14 52 6 52 -6 C40 -18 -40 -18 -52 -6Z" fill="#9b6b4c" opacity=".55"/>
    <path d="M-34 -24 Q-22 -31 -10 -26" stroke="#278764" stroke-width="2.6" fill="none" stroke-linecap="round"/>
    <path d="M34 -24 Q22 -31 10 -26" stroke="#278764" stroke-width="2.6" fill="none" stroke-linecap="round"/>
    <g>
    <path d="M-34 2 Q-21 -14 -8 -2 Q-9 22 -21 27 Q-33 22 -34 2Z" fill="#fff"/>
    <ellipse cx="-21" cy="9" rx="11.5" ry="16" fill="url(#p1ah8ifg-iris)"/>
    <ellipse cx="-21" cy="11" rx="5.5" ry="8.5" fill="#160f24"/>
    <circle cx="-17" cy="2" r="4.6" fill="#fff"/>
    <circle cx="-25" cy="17" r="2.2" fill="#fff" opacity=".85"/>
    <path d="M-37 0 Q-21 -19 -6 -5" stroke="#1d1428" stroke-width="4.5" fill="none" stroke-linecap="round"/>
    <path d="M-37 0 l-6 -5" stroke="#1d1428" stroke-width="3" stroke-linecap="round"/>
    <path d="M-12 25 Q-21 29 -29 23" stroke="#5a4366" stroke-width="1.4" fill="none" opacity=".6"/>
  </g>
    <path d="M8 4 Q21 14 34 4" stroke="#2a1e3a" stroke-width="3.5" fill="none" stroke-linecap="round"/>
    <path d="M1 30 l2 5" stroke="#7b553c" stroke-width="1.6" stroke-linecap="round"/>
    <ellipse cx="-31" cy="33" rx="9" ry="4" fill="#f58aa4" opacity=".45"/>
    <ellipse cx="31" cy="33" rx="9" ry="4" fill="#f58aa4" opacity=".45"/>
    <path d="M-8 45 Q0 52 8 45" stroke="#9a4a56" stroke-width="2.4" fill="none" stroke-linecap="round"/>
    <path d="M-62 -4 C-70 -72 -30 -90 0 -88 C30 -90 70 -72 62 -4 L54 0 L46 -26 L38 8 L26 -24 L14 4 L4 -30 L-8 6 L-18 -26 L-30 8 L-40 -24 L-50 2Z" fill="url(#p1ah8ifg-hair)"/>
         <path d="M-62 -8 C-72 30 -68 74 -58 104 C-50 74 -48 30 -46 -2Z" fill="url(#p1ah8ifg-hair)"/>
         <path d="M62 -8 C72 30 68 74 58 104 C50 74 48 30 46 -2Z" fill="url(#p1ah8ifg-hair)"/>
    <path d="M-40 -56 Q0 -74 40 -56" stroke="#fff" stroke-opacity=".35" stroke-width="5" fill="none" stroke-linecap="round"/>
    
  </g></g>
    <path d="M456 408 L496.3 360.9 L510.8 292.4" stroke="#272660" stroke-width="24" fill="none" stroke-linecap="round" stroke-linejoin="round"/>
    <circle cx="510.8" cy="292.4" r="12" fill="#b07a56"/>
    <circle cx="496.3" cy="360.9" r="11" fill="#e8c46a" stroke="#8b7640" stroke-width="2"/>
    <g>
        <line x1="510.8" y1="442.4" x2="510.8" y2="122.4" stroke="#ae9350" stroke-width="7" stroke-linecap="round"/>
        <circle cx="510.8" cy="106.4" r="20" fill="#818cf8" opacity=".9"/>
        <circle cx="510.8" cy="106.4" r="40" fill="#818cf8" opacity=".35" filter="url(#p1ah8ifg-soft)"/>
        <path d="M488.8 122.4 Q510.8 72.4 532.8 122.4" stroke="#e8c46a" stroke-width="4" fill="none"/>
      </g>
    
  </g></g></g><path d="M538.1 337.4 L540.3 344.7 L538.1 352.1 L535.9 344.7Z" fill="#fff" opacity="0.8"/><path d="M436.4 533.1 L438.9 541.5 L436.4 549.9 L433.9 541.5Z" fill="#fff" opacity="0.5"/><circle cx="567.1" cy="497.5" r="3.0" fill="#818cf8" opacity="0.7"/><path d="M626.3 367.0 L627.5 371.0 L626.3 375.0 L625.1 371.0Z" fill="#fff" opacity="0.8"/><circle cx="216.0" cy="494.4" r="3.6" fill="#818cf8" opacity="0.4"/><circle cx="537.6" cy="394.7" r="5.4" fill="#818cf8" opacity="0.5"/><circle cx="348.9" cy="434.2" r="3.4" fill="#818cf8" opacity="0.7"/><circle cx="256.9" cy="538.6" r="5.8" fill="#818cf8" opacity="0.5"/><circle cx="639.4" cy="675.5" r="4.9" fill="#818cf8" opacity="0.5"/><path d="M539.8 181.9 L542.9 192.2 L539.8 202.4 L536.7 192.2Z" fill="#fff" opacity="0.8"/><circle cx="483.9" cy="430.4" r="5.4" fill="#818cf8" opacity="0.4"/><circle cx="506.7" cy="707.3" r="3.3" fill="#818cf8" opacity="0.3"/><circle cx="584.7" cy="631.8" r="5.9" fill="#818cf8" opacity="0.6"/><circle cx="144.4" cy="300.7" r="2.7" fill="#818cf8" opacity="0.6"/><path d="M111.8 164.0 L115.3 175.6 L111.8 187.2 L108.3 175.6Z" fill="#fff" opacity="0.5"/><circle cx="497.1" cy="386.7" r="5.2" fill="#818cf8" opacity="0.7"/>
  <rect y="930" width="800" height="70" fill="url(#p1ah8ifg-floor)"/>
</svg>
