<svg xmlns="http://www.w3.org/2000/svg" viewBox="0 0 800 1000" role="img" aria-label="Pip the Vault Sprite Chibi Mini — original artwork">
  <defs>
    <radialGradient id="p1lmxxh4-bg" cx="50%" cy="40%" r="75%">
      <stop offset="0" stop-color="#a78bfa" stop-opacity=".55"/>
      <stop offset=".55" stop-color="#120c26"/>
      <stop offset="1" stop-color="#07070b"/>
    </radialGradient>
    <linearGradient id="p1lmxxh4-body" x1="0" y1="0" x2="1" y2="1">
      <stop offset="0" stop-color="#a78bfa"/>
      <stop offset="1" stop-color="#fde68a"/>
    </linearGradient>
    <linearGradient id="p1lmxxh4-base" x1="0" y1="0" x2="0" y2="1">
      <stop offset="0" stop-color="#2e2945"/>
      <stop offset="1" stop-color="#110f1a"/>
    </linearGradient>
    <filter id="p1lmxxh4-glow" x="-50%" y="-50%" width="200%" height="200%"><feGaussianBlur stdDeviation="14"/></filter>
    <linearGradient id="p1lmxxh4-floor" x1="0" y1="0" x2="0" y2="1">
      <stop offset="0" stop-color="#07070b" stop-opacity="0"/>
      <stop offset="1" stop-color="#07070b" stop-opacity=".7"/>
    </linearGradient>
    <pattern id="p1lmxxh4-grid" width="40" height="40" patternUnits="userSpaceOnUse">
      <path d="M40 0H0V40" fill="none" stroke="#fff" stroke-opacity=".04"/>
    </pattern>
  </defs>
  <rect width="800" height="1000" fill="url(#p1lmxxh4-bg)"/>
  <rect width="800" height="1000" fill="url(#p1lmxxh4-grid)"/>
  <circle cx="400" cy="460" r="260" fill="#a78bfa" opacity=".16" filter="url(#p1lmxxh4-glow)"/>
  <defs><linearGradient id="p1lmxxh4-hair" x1="0" y1="0" x2="0.4" y2="1">
      <stop offset="0" stop-color="#6ddbb3"/>
      <stop offset=".55" stop-color="#3ccf9a"/>
      <stop offset="1" stop-color="#247c5c"/>
    </linearGradient>
    <radialGradient id="p1lmxxh4-iris" cx="50%" cy="30%" r="70%">
      <stop offset="0" stop-color="#511c81"/>
      <stop offset=".6" stop-color="#9333ea"/>
      <stop offset="1" stop-color="#c48ff3"/>
    </radialGradient>
    <linearGradient id="p1lmxxh4-cloth" x1="0" y1="0" x2="1" y2="1">
      <stop offset="0" stop-color="#f6f4fc"/>
      <stop offset=".6" stop-color="#f4f1fb"/>
      <stop offset="1" stop-color="#929197"/>
    </linearGradient>
    <linearGradient id="p1lmxxh4-blade" x1="0" y1="0" x2="1" y2="0">
      <stop offset="0" stop-color="#ffffff"/>
      <stop offset="1" stop-color="#fde68a"/>
    </linearGradient>
    <filter id="p1lmxxh4-soft" x="-80%" y="-80%" width="260%" height="260%"><feGaussianBlur stdDeviation="12"/></filter></defs><ellipse cx="400" cy="470" rx="250" ry="330" fill="#fde68a" opacity=".14" filter="url(#p1lmxxh4-soft)"/>
    <path d="M300 0 L500 0 L640 820 L160 820Z" fill="#fff" opacity=".025"/>
    <g><ellipse cx="400" cy="858" rx="236" ry="40" fill="#000" opacity=".5"/>
    <path d="M182 800 L182 836 Q400 880 618 836 L618 800Z" fill="url(#p1lmxxh4-base)"/>
    <ellipse cx="400" cy="800" rx="218" ry="36" fill="#262038"/>
    <ellipse cx="400" cy="800" rx="218" ry="36" fill="none" stroke="#fde68a" stroke-opacity=".55" stroke-width="2.5"/>
    <ellipse cx="400" cy="800" rx="196" ry="28" fill="none" stroke="#fff" stroke-opacity=".06" stroke-width="8"/><g>
    <g transform="translate(400 430) scale(1.9)"><path d="M-52 -48 C-120 -60 -128 40 -110 78.4 C-100 112.0 -140 132.0 -120 152.0 C-70 112.0 -74 56.0 -62 10Z" fill="url(#p1lmxxh4-hair)"/>
             <circle cx="-56" cy="-50" r="11" fill="#7c3aed"/><path d="M52 -48 C120 -60 128 40 110 78.4 C100 112.0 140 132.0 120 152.0 C70 112.0 74 56.0 62 10Z" fill="url(#p1lmxxh4-hair)"/>
             <circle cx="56" cy="-50" r="11" fill="#7c3aed"/><path d="M-64 -10 C-80 -96 80 -96 64 -10 L60 40 L-60 40Z" fill="url(#p1lmxxh4-hair)"/></g>
    <path d="M372 700 L370 778 Q384 790 396 780 L396 700Z M404 700 L404 780 Q416 790 430 778 L428 700Z" fill="#442082"/>
    <path d="M352 588 Q400 566 448 588 L462 712 Q400 728 338 712Z" fill="url(#p1lmxxh4-cloth)"/>
    <rect x="350" y="650" width="100" height="12" rx="4" fill="#7c3aed"/>
    <path d="M356 600 Q330 630 334 664" stroke="#dcd9e2" stroke-width="22" fill="none" stroke-linecap="round"/>
    <circle cx="334" cy="670" r="12" fill="#f1c3a6"/>
    <path d="M444 600 Q462 600 470 600" stroke="#dcd9e2" stroke-width="22" fill="none" stroke-linecap="round"/>
    <circle cx="470" cy="600" r="12" fill="#f1c3a6"/>
    <g transform="translate(400 430) scale(1.9)"><g>
    <path d="M-52 -6 C-54 32 -30 62 0 72 C30 62 54 32 52 -6 C52 -60 -52 -60 -52 -6Z" fill="#f1c3a6"/>
    <path d="M-52 -6 C-52 6 -46 14 -40 18 Q0 4 40 18 C46 14 52 6 52 -6 C40 -18 -40 -18 -52 -6Z" fill="#d4ac92" opacity=".55"/>
    <path d="M-34 -24 Q-22 -31 -10 -26" stroke="#278764" stroke-width="2.6" fill="none" stroke-linecap="round"/>
    <path d="M34 -24 Q22 -31 10 -26" stroke="#278764" stroke-width="2.6" fill="none" stroke-linecap="round"/>
    <g>
    <path d="M-34 2 Q-21 -14 -8 -2 Q-9 22 -21 27 Q-33 22 -34 2Z" fill="#fff"/>
    <ellipse cx="-21" cy="9" rx="11.5" ry="16" fill="url(#p1lmxxh4-iris)"/>
    <ellipse cx="-21" cy="11" rx="5.5" ry="8.5" fill="#160f24"/>
    <circle cx="-17" cy="2" r="4.6" fill="#fff"/>
    <circle cx="-25" cy="17" r="2.2" fill="#fff" opacity=".85"/>
    <path d="M-37 0 Q-21 -19 -6 -5" stroke="#1d1428" stroke-width="4.5" fill="none" stroke-linecap="round"/>
    <path d="M-37 0 l-6 -5" stroke="#1d1428" stroke-width="3" stroke-linecap="round"/>
    <path d="M-12 25 Q-21 29 -29 23" stroke="#5a4366" stroke-width="1.4" fill="none" opacity=".6"/>
  </g>
    <g>
    <path d="M34 2 Q21 -14 8 -2 Q9 22 21 27 Q33 22 34 2Z" fill="#fff"/>
    <ellipse cx="21" cy="9" rx="11.5" ry="16" fill="url(#p1lmxxh4-iris)"/>
    <ellipse cx="21" cy="11" rx="5.5" ry="8.5" fill="#160f24"/>
    <circle cx="17" cy="2" r="4.6" fill="#fff"/>
    <circle cx="25" cy="17" r="2.2" fill="#fff" opacity=".85"/>
    <path d="M37 0 Q21 -19 6 -5" stroke="#1d1428" stroke-width="4.5" fill="none" stroke-linecap="round"/>
    <path d="M37 0 l6 -5" stroke="#1d1428" stroke-width="3" stroke-linecap="round"/>
    <path d="M12 25 Q21 29 29 23" stroke="#5a4366" stroke-width="1.4" fill="none" opacity=".6"/>
  </g>
    <path d="M1 30 l2 5" stroke="#a98974" stroke-width="1.6" stroke-linecap="round"/>
    <ellipse cx="-31" cy="33" rx="9" ry="4" fill="#f58aa4" opacity=".45"/>
    <ellipse cx="31" cy="33" rx="9" ry="4" fill="#f58aa4" opacity=".45"/>
    <path d="M-6 47 L6 47" stroke="#9a4a56" stroke-width="2.2" stroke-linecap="round"/>
    <path d="M-62 -4 C-70 -72 -30 -90 0 -88 C30 -90 70 -72 62 -4 L54 0 L46 -26 L38 8 L26 -24 L14 4 L4 -30 L-8 6 L-18 -26 L-30 8 L-40 -24 L-50 2Z" fill="url(#p1lmxxh4-hair)"/>
         <path d="M-62 -8 C-72 30 -68 74 -58 104 C-50 74 -48 30 -46 -2Z" fill="url(#p1lmxxh4-hair)"/>
         <path d="M62 -8 C72 30 68 74 58 104 C50 74 48 30 46 -2Z" fill="url(#p1lmxxh4-hair)"/>
    <path d="M-40 -56 Q0 -74 40 -56" stroke="#fff" stroke-opacity=".35" stroke-width="5" fill="none" stroke-linecap="round"/>
    <path d="M-64 -40 Q0 -86 64 -40" stroke="#7c3aed" stroke-width="9" fill="none"/>
  </g></g>
    <g transform="translate(470 600) scale(.55) translate(-470 -600)"><g transform="translate(470.0 580.0) rotate(-12)"><rect x="-30" y="-22" width="60" height="44" rx="4" fill="#7c3aed"/><rect x="-26" y="-18" width="52" height="36" rx="2" fill="#f8f4e8"/><line x1="0" y1="-18" x2="0" y2="18" stroke="#c9bfa5" stroke-width="2"/><circle cx="0" cy="-34" r="16" fill="#fde68a" opacity=".5" filter="url(#p1lmxxh4-soft)"/></g></g>
  </g></g><path d="M676.0 612.7 L679.2 623.3 L676.0 634.0 L672.8 623.3Z" fill="#fff" opacity="0.6"/><path d="M141.6 172.7 L143.8 180.2 L141.6 187.7 L139.3 180.2Z" fill="#fff" opacity="0.7"/><circle cx="523.7" cy="603.1" r="5.7" fill="#fde68a" opacity="0.5"/><path d="M435.0 145.8 L437.7 154.9 L435.0 164.1 L432.2 154.9Z" fill="#fff" opacity="0.7"/><circle cx="237.5" cy="382.0" r="5.3" fill="#fde68a" opacity="0.7"/><circle cx="174.2" cy="599.1" r="3.9" fill="#fde68a" opacity="0.5"/><path d="M634.0 658.8 L635.9 665.4 L634.0 672.0 L632.0 665.4Z" fill="#fff" opacity="0.6"/><circle cx="463.8" cy="334.7" r="4.9" fill="#fde68a" opacity="0.3"/><circle cx="541.0" cy="400.8" r="4.5" fill="#fde68a" opacity="0.6"/><circle cx="333.5" cy="327.6" r="5.8" fill="#fde68a" opacity="0.4"/><circle cx="626.3" cy="426.7" r="4.1" fill="#fde68a" opacity="0.7"/><circle cx="137.9" cy="489.4" r="3.5" fill="#fde68a" opacity="0.7"/><circle cx="347.8" cy="546.5" r="2.2" fill="#fde68a" opacity="0.4"/><circle cx="270.0" cy="447.5" r="4.0" fill="#fde68a" opacity="0.3"/><circle cx="229.2" cy="555.0" r="4.4" fill="#fde68a" opacity="0.4"/><circle cx="527.3" cy="579.9" r="2.2" fill="#fde68a" opacity="0.4"/>
  <rect y="930" width="800" height="70" fill="url(#p1lmxxh4-floor)"/>
</svg>
