<svg xmlns="http://www.w3.org/2000/svg" viewBox="0 0 800 1000" role="img" aria-label="Limited Editions category placeholder artwork">
  <defs>
    <radialGradient id="c5-bg" cx="50%" cy="40%" r="75%">
      <stop offset="0" stop-color="#34d399" stop-opacity=".55"/>
      <stop offset=".55" stop-color="#071a14"/>
      <stop offset="1" stop-color="#07070b"/>
    </radialGradient>
    <linearGradient id="c5-body" x1="0" y1="0" x2="1" y2="1">
      <stop offset="0" stop-color="#34d399"/>
      <stop offset="1" stop-color="#a78bfa"/>
    </linearGradient>
    <linearGradient id="c5-base" x1="0" y1="0" x2="0" y2="1">
      <stop offset="0" stop-color="#2e2945"/>
      <stop offset="1" stop-color="#110f1a"/>
    </linearGradient>
    <filter id="c5-glow" x="-50%" y="-50%" width="200%" height="200%"><feGaussianBlur stdDeviation="14"/></filter>
    <linearGradient id="c5-floor" x1="0" y1="0" x2="0" y2="1">
      <stop offset="0" stop-color="#07070b" stop-opacity="0"/>
      <stop offset="1" stop-color="#07070b" stop-opacity=".7"/>
    </linearGradient>
    <pattern id="c5-grid" width="40" height="40" patternUnits="userSpaceOnUse">
      <path d="M40 0H0V40" fill="none" stroke="#fff" stroke-opacity=".04"/>
    </pattern>
  </defs>
  <rect width="800" height="1000" fill="url(#c5-bg)"/>
  <rect width="800" height="1000" fill="url(#c5-grid)"/>
  <circle cx="400" cy="440" r="300" fill="#a78bfa" opacity=".12" filter="url(#c5-glow)"/>
  <defs><linearGradient id="c5-hair" x1="0" y1="0" x2="0.4" y2="1">
      <stop offset="0" stop-color="#eeecf4"/>
      <stop offset=".55" stop-color="#e8e6f0"/>
      <stop offset="1" stop-color="#8b8a90"/>
    </linearGradient>
    <radialGradient id="c5-iris" cx="50%" cy="30%" r="70%">
      <stop offset="0" stop-color="#0c5a29"/>
      <stop offset=".6" stop-color="#16a34a"/>
      <stop offset="1" stop-color="#7fcc9b"/>
    </radialGradient>
    <linearGradient id="c5-cloth" x1="0" y1="0" x2="1" y2="1">
      <stop offset="0" stop-color="#a0523e"/>
      <stop offset=".6" stop-color="#8b2c14"/>
      <stop offset="1" stop-color="#531a0c"/>
    </linearGradient>
    <linearGradient id="c5-blade" x1="0" y1="0" x2="1" y2="0">
      <stop offset="0" stop-color="#ffffff"/>
      <stop offset="1" stop-color="#a78bfa"/>
    </linearGradient>
    <filter id="c5-soft" x="-80%" y="-80%" width="260%" height="260%"><feGaussianBlur stdDeviation="12"/></filter></defs><ellipse cx="400" cy="470" rx="250" ry="330" fill="#a78bfa" opacity=".14" filter="url(#c5-soft)"/>
    <path d="M300 0 L500 0 L640 820 L160 820Z" fill="#fff" opacity=".025"/><g><ellipse cx="400" cy="866" rx="260" ry="42" fill="#000" opacity=".55"/>
    <path d="M160 800 L176 846 Q400 890 624 846 L640 800Z" fill="url(#c5-base)"/>
    <ellipse cx="400" cy="800" rx="240" ry="38" fill="#221d33" stroke="#a78bfa" stroke-opacity=".4" stroke-width="2"/>
    <path d="M200 800 L220 760 L256 748 L294 780 L300 800Z" fill="#3a3352" stroke="#ffffff" stroke-opacity=".06"/><path d="M270 800 L290 736 L326 732 L364 780 L370 800Z" fill="#524b67" stroke="#ffffff" stroke-opacity=".06"/><path d="M350 800 L370 760 L406 716 L444 780 L450 800Z" fill="#3a3352" stroke="#ffffff" stroke-opacity=".06"/><path d="M430 800 L450 736 L486 748 L524 780 L530 800Z" fill="#524b67" stroke="#ffffff" stroke-opacity=".06"/><path d="M500 800 L520 760 L556 732 L594 780 L600 800Z" fill="#3a3352" stroke="#ffffff" stroke-opacity=".06"/>
    <path d="M290 790 L304 730 L316 790Z" fill="#a78bfa" opacity=".8"/><path d="M308 792 L324 752 L334 794Z" fill="#a78bfa" opacity=".55"/><path d="M520 790 L534 730 L546 790Z" fill="#a78bfa" opacity=".8"/><path d="M538 792 L554 752 L564 794Z" fill="#a78bfa" opacity=".55"/><g transform="translate(24 32) scale(.94)"><g>
    
    <g transform="translate(400 300)"><path d="M-52 -48 C-120 -60 -128 40 -110 116.4 C-100 166.3 -140 186.3 -120 206.3 C-70 166.3 -74 83.1 -62 10Z" fill="url(#c5-hair)"/>
             <circle cx="-56" cy="-50" r="11" fill="#fde68a"/><path d="M52 -48 C120 -60 128 40 110 116.4 C100 166.3 140 186.3 120 206.3 C70 166.3 74 83.1 62 10Z" fill="url(#c5-hair)"/>
             <circle cx="56" cy="-50" r="11" fill="#fde68a"/><path d="M-64 -10 C-80 -96 80 -96 64 -10 L60 40 L-60 40Z" fill="url(#c5-hair)"/></g>
    
    <path d="M361.0 610 L391.0 610 L384.0 770 L360.0 770Z" fill="#1f1a2e"/>
              <path d="M356.0 718 L388.0 718 L390.0 788 Q372.0 796 350.0 790Z" fill="#8b7f4c"/>
              <path d="M409.0 610 L439.0 610 L440.0 770 L416.0 770Z" fill="#1f1a2e"/>
              <path d="M412.0 718 L444.0 718 L446.0 788 Q428.0 796 406.0 790Z" fill="#8b7f4c"/>
              
    <path d="M360 520 C332 566 304 612 292 646 Q400 672 508 646 C496 612 468 566 440 520Z" fill="url(#c5-cloth)"/>
          <path d="M379 524 L312.5 656" stroke="#5a1d0d" stroke-width="2.5" opacity=".5"/><path d="M389.5 524 L356.25 656" stroke="#5a1d0d" stroke-width="2.5" opacity=".5"/><path d="M400 524 L400 656" stroke="#5a1d0d" stroke-width="2.5" opacity=".5"/><path d="M410.5 524 L443.75 656" stroke="#5a1d0d" stroke-width="2.5" opacity=".5"/><path d="M421 524 L487.5 656" stroke="#5a1d0d" stroke-width="2.5" opacity=".5"/>
          <path d="M292 646 Q400 672 508 646" stroke="#fde68a" stroke-width="5" fill="none"/>
    <path d="M344 408 Q318 470 328 548" stroke="#7d2812" stroke-width="26" fill="none" stroke-linecap="round"/>
    <circle cx="328" cy="556" r="12" fill="#f8d5c2"/>
    
    <rect x="388" y="356" width="24" height="40" fill="#e4c4b2"/>
    <path d="M338 412 Q350 394 374 390 L426 390 Q450 394 462 412 L454 470 Q442 506 442 522 L358 522 Q358 506 346 470Z" fill="url(#c5-cloth)"/>
    <path d="M374 390 L400 436 L426 390" fill="#fde68a" opacity=".9"/>
    <path d="M378 390 L400 428 L422 390" fill="#f8d5c2"/>
    <rect x="354" y="508" width="92" height="16" rx="4" fill="#fde68a"/>
    <rect x="392" y="506" width="16" height="20" rx="3" fill="#a4965a"/>
    <path d="M368 450 Q400 462 432 450" stroke="#5a1d0d" stroke-width="2.5" fill="none" opacity=".6"/>
    
    <g transform="translate(400 300)"><g>
    <path d="M-52 -6 C-54 32 -30 62 0 72 C30 62 54 32 52 -6 C52 -60 -52 -60 -52 -6Z" fill="#f8d5c2"/>
    <path d="M-52 -6 C-52 6 -46 14 -40 18 Q0 4 40 18 C46 14 52 6 52 -6 C40 -18 -40 -18 -52 -6Z" fill="#dabbab" opacity=".55"/>
    <path d="M-34 -24 Q-22 -31 -10 -26" stroke="#97969c" stroke-width="2.6" fill="none" stroke-linecap="round"/>
    <path d="M34 -24 Q22 -31 10 -26" stroke="#97969c" stroke-width="2.6" fill="none" stroke-linecap="round"/>
    <g>
    <path d="M-34 2 Q-21 -14 -8 -2 Q-9 22 -21 27 Q-33 22 -34 2Z" fill="#fff"/>
    <ellipse cx="-21" cy="9" rx="11.5" ry="16" fill="url(#c5-iris)"/>
    <ellipse cx="-21" cy="11" rx="5.5" ry="8.5" fill="#160f24"/>
    <circle cx="-17" cy="2" r="4.6" fill="#fff"/>
    <circle cx="-25" cy="17" r="2.2" fill="#fff" opacity=".85"/>
    <path d="M-37 0 Q-21 -19 -6 -5" stroke="#1d1428" stroke-width="4.5" fill="none" stroke-linecap="round"/>
    <path d="M-37 0 l-6 -5" stroke="#1d1428" stroke-width="3" stroke-linecap="round"/>
    <path d="M-12 25 Q-21 29 -29 23" stroke="#5a4366" stroke-width="1.4" fill="none" opacity=".6"/>
  </g>
    <g>
    <path d="M34 2 Q21 -14 8 -2 Q9 22 21 27 Q33 22 34 2Z" fill="#fff"/>
    <ellipse cx="21" cy="9" rx="11.5" ry="16" fill="url(#c5-iris)"/>
    <ellipse cx="21" cy="11" rx="5.5" ry="8.5" fill="#160f24"/>
    <circle cx="17" cy="2" r="4.6" fill="#fff"/>
    <circle cx="25" cy="17" r="2.2" fill="#fff" opacity=".85"/>
    <path d="M37 0 Q21 -19 6 -5" stroke="#1d1428" stroke-width="4.5" fill="none" stroke-linecap="round"/>
    <path d="M37 0 l6 -5" stroke="#1d1428" stroke-width="3" stroke-linecap="round"/>
    <path d="M12 25 Q21 29 29 23" stroke="#5a4366" stroke-width="1.4" fill="none" opacity=".6"/>
  </g>
    <path d="M1 30 l2 5" stroke="#ae9588" stroke-width="1.6" stroke-linecap="round"/>
    <ellipse cx="-31" cy="33" rx="9" ry="4" fill="#f58aa4" opacity=".45"/>
    <ellipse cx="31" cy="33" rx="9" ry="4" fill="#f58aa4" opacity=".45"/>
    <path d="M-6 47 L6 47" stroke="#9a4a56" stroke-width="2.2" stroke-linecap="round"/>
    <path d="M-62 -4 C-70 -72 -30 -90 0 -88 C30 -90 70 -72 62 -4 L54 0 L46 -26 L38 8 L26 -24 L14 4 L4 -30 L-8 6 L-18 -26 L-30 8 L-40 -24 L-50 2Z" fill="url(#c5-hair)"/>
         <path d="M-62 -8 C-72 30 -68 74 -58 104 C-50 74 -48 30 -46 -2Z" fill="url(#c5-hair)"/>
         <path d="M62 -8 C72 30 68 74 58 104 C50 74 48 30 46 -2Z" fill="url(#c5-hair)"/>
    <path d="M-40 -56 Q0 -74 40 -56" stroke="#fff" stroke-opacity=".35" stroke-width="5" fill="none" stroke-linecap="round"/>
    
  </g></g>
    <path d="M456 408 L467.8 347.1 L446.6 280.4" stroke="#7d2812" stroke-width="24" fill="none" stroke-linecap="round" stroke-linejoin="round"/>
    <circle cx="446.6" cy="280.4" r="12" fill="#f8d5c2"/>
    
    <circle cx="446.6" cy="240.4" r="26" fill="#a78bfa" opacity=".85"/>
        <circle cx="446.6" cy="240.4" r="56" fill="#a78bfa" opacity=".3" filter="url(#c5-soft)"/>
        <circle cx="438.6" cy="232.4" r="7" fill="#fff" opacity=".8"/>
    
  </g></g></g><circle cx="427.5" cy="198.5" r="5.8" fill="#a78bfa" opacity="0.5"/><circle cx="362.1" cy="569.8" r="5.7" fill="#a78bfa" opacity="0.7"/><path d="M304.3 138.8 L307.8 150.4 L304.3 162.0 L300.8 150.4Z" fill="#fff" opacity="0.7"/><circle cx="257.0" cy="261.6" r="2.1" fill="#a78bfa" opacity="0.4"/><circle cx="542.0" cy="339.3" r="5.5" fill="#a78bfa" opacity="0.6"/><path d="M647.1 485.1 L650.0 494.6 L647.1 504.0 L644.3 494.6Z" fill="#fff" opacity="0.6"/><circle cx="192.7" cy="576.6" r="3.1" fill="#a78bfa" opacity="0.3"/><circle cx="355.5" cy="330.0" r="5.2" fill="#a78bfa" opacity="0.7"/><circle cx="509.8" cy="678.3" r="4.8" fill="#a78bfa" opacity="0.7"/><circle cx="688.4" cy="311.4" r="2.1" fill="#a78bfa" opacity="0.3"/><circle cx="484.5" cy="169.6" r="2.5" fill="#a78bfa" opacity="0.6"/><circle cx="262.5" cy="527.9" r="5.8" fill="#a78bfa" opacity="0.6"/><circle cx="614.4" cy="160.9" r="5.7" fill="#a78bfa" opacity="0.6"/><circle cx="570.4" cy="483.4" r="3.4" fill="#a78bfa" opacity="0.7"/><path d="M473.1 354.0 L475.5 362.0 L473.1 370.0 L470.7 362.0Z" fill="#fff" opacity="0.7"/><circle cx="363.5" cy="165.8" r="4.1" fill="#a78bfa" opacity="0.3"/>
</svg>
