<svg xmlns="http://www.w3.org/2000/svg" viewBox="0 0 800 800" role="img" aria-label="Placeholder community shelf photo 7">
  <defs>
    <radialGradient id="g6-bg" cx="50%" cy="40%" r="75%">
      <stop offset="0" stop-color="#a78bfa" stop-opacity=".55"/>
      <stop offset=".55" stop-color="#120c26"/>
      <stop offset="1" stop-color="#07070b"/>
    </radialGradient>
    <linearGradient id="g6-body" x1="0" y1="0" x2="1" y2="1">
      <stop offset="0" stop-color="#a78bfa"/>
      <stop offset="1" stop-color="#fde68a"/>
    </linearGradient>
    <linearGradient id="g6-base" x1="0" y1="0" x2="0" y2="1">
      <stop offset="0" stop-color="#2e2945"/>
      <stop offset="1" stop-color="#110f1a"/>
    </linearGradient>
    <filter id="g6-glow" x="-50%" y="-50%" width="200%" height="200%"><feGaussianBlur stdDeviation="14"/></filter>
    <linearGradient id="g6-floor" x1="0" y1="0" x2="0" y2="1">
      <stop offset="0" stop-color="#07070b" stop-opacity="0"/>
      <stop offset="1" stop-color="#07070b" stop-opacity=".7"/>
    </linearGradient>
    <pattern id="g6-grid" width="40" height="40" patternUnits="userSpaceOnUse">
      <path d="M40 0H0V40" fill="none" stroke="#fff" stroke-opacity=".04"/>
    </pattern>
  </defs>
  <rect width="800" height="800" fill="url(#g6-bg)"/>
  <rect width="800" height="800" fill="url(#g6-grid)"/>
  <rect y="700" width="800" height="100" fill="#000" opacity=".35"/>
  <g transform="translate(80 -90) scale(.8)"><g>
      <rect x="220" y="170" width="360" height="640" rx="14" fill="#a78bfa" fill-opacity=".08" stroke="#e0e7ff" stroke-opacity=".55" stroke-width="4"/>
      <rect x="236" y="186" width="40" height="608" fill="#fff" opacity=".06"/>
      <rect x="226" y="390" width="348" height="8" fill="#e0e7ff" opacity=".35"/><rect x="226" y="560" width="348" height="8" fill="#e0e7ff" opacity=".35"/>
      <ellipse cx="300" cy="390" rx="30" ry="6" fill="#000" opacity=".4"/>
              <path d="M300 323.104 q -26 40.1376 -22 66.896 h 44 q 4 -26.7584 -22 -66.896z" fill="#fde68a" opacity=".85"/>
              <circle cx="300" cy="311.104" r="14" fill="#ede9fe"/><ellipse cx="400" cy="390" rx="30" ry="6" fill="#000" opacity=".4"/>
              <path d="M400 301.84000000000003 q -26 52.895999999999994 -22 88.16 h 44 q 4 -35.264 -22 -88.16z" fill="#a78bfa" opacity=".85"/>
              <circle cx="400" cy="289.84000000000003" r="14" fill="#ede9fe"/><ellipse cx="500" cy="390" rx="30" ry="6" fill="#000" opacity=".4"/>
              <path d="M500 318.9 q -26 42.66 -22 71.1 h 44 q 4 -28.439999999999998 -22 -71.1z" fill="#fde68a" opacity=".85"/>
              <circle cx="500" cy="306.9" r="14" fill="#ede9fe"/><ellipse cx="300" cy="560" rx="30" ry="6" fill="#000" opacity=".4"/>
              <path d="M300 508.452 q -26 30.9288 -22 51.548 h 44 q 4 -20.619200000000003 -22 -51.548z" fill="#fde68a" opacity=".85"/>
              <circle cx="300" cy="496.452" r="14" fill="#ede9fe"/><ellipse cx="400" cy="560" rx="30" ry="6" fill="#000" opacity=".4"/>
              <path d="M400 486.5 q -26 44.1 -22 73.5 h 44 q 4 -29.400000000000002 -22 -73.5z" fill="#a78bfa" opacity=".85"/>
              <circle cx="400" cy="474.5" r="14" fill="#ede9fe"/><ellipse cx="500" cy="560" rx="30" ry="6" fill="#000" opacity=".4"/>
              <path d="M500 480.772 q -26 47.53680000000001 -22 79.22800000000001 h 44 q 4 -31.691200000000006 -22 -79.22800000000001z" fill="#fde68a" opacity=".85"/>
              <circle cx="500" cy="468.772" r="14" fill="#ede9fe"/><ellipse cx="300" cy="730" rx="30" ry="6" fill="#000" opacity=".4"/>
              <path d="M300 675.504 q -26 32.6976 -22 54.496 h 44 q 4 -21.7984 -22 -54.496z" fill="#fde68a" opacity=".85"/>
              <circle cx="300" cy="663.504" r="14" fill="#ede9fe"/><ellipse cx="400" cy="730" rx="30" ry="6" fill="#000" opacity=".4"/>
              <path d="M400 674.668 q -26 33.1992 -22 55.332 h 44 q 4 -22.132800000000003 -22 -55.332z" fill="#a78bfa" opacity=".85"/>
              <circle cx="400" cy="662.668" r="14" fill="#ede9fe"/><ellipse cx="500" cy="730" rx="30" ry="6" fill="#000" opacity=".4"/>
              <path d="M500 644.032 q -26 51.5808 -22 85.968 h 44 q 4 -34.3872 -22 -85.968z" fill="#fde68a" opacity=".85"/>
              <circle cx="500" cy="632.032" r="14" fill="#ede9fe"/>
      <rect x="200" y="806" width="400" height="40" rx="8" fill="#15121f" stroke="#fde68a" stroke-width="2"/>
      <rect x="230" y="822" width="340" height="6" rx="3" fill="#fde68a" opacity=".9"/>
      <ellipse cx="400" cy="826" rx="220" ry="20" fill="#fde68a" opacity=".18"/>
    </g></g>
</svg>
