<svg xmlns="http://www.w3.org/2000/svg" viewBox="0 0 800 800" role="img" aria-label="Placeholder community shelf photo 6">
  <defs>
    <radialGradient id="g5-bg" cx="50%" cy="40%" r="75%">
      <stop offset="0" stop-color="#34d399" stop-opacity=".55"/>
      <stop offset=".55" stop-color="#071a14"/>
      <stop offset="1" stop-color="#07070b"/>
    </radialGradient>
    <linearGradient id="g5-body" x1="0" y1="0" x2="1" y2="1">
      <stop offset="0" stop-color="#34d399"/>
      <stop offset="1" stop-color="#a78bfa"/>
    </linearGradient>
    <linearGradient id="g5-base" x1="0" y1="0" x2="0" y2="1">
      <stop offset="0" stop-color="#2e2945"/>
      <stop offset="1" stop-color="#110f1a"/>
    </linearGradient>
    <filter id="g5-glow" x="-50%" y="-50%" width="200%" height="200%"><feGaussianBlur stdDeviation="14"/></filter>
    <linearGradient id="g5-floor" x1="0" y1="0" x2="0" y2="1">
      <stop offset="0" stop-color="#07070b" stop-opacity="0"/>
      <stop offset="1" stop-color="#07070b" stop-opacity=".7"/>
    </linearGradient>
    <pattern id="g5-grid" width="40" height="40" patternUnits="userSpaceOnUse">
      <path d="M40 0H0V40" fill="none" stroke="#fff" stroke-opacity=".04"/>
    </pattern>
  </defs>
  <rect width="800" height="800" fill="url(#g5-bg)"/>
  <rect width="800" height="800" fill="url(#g5-grid)"/>
  <rect y="700" width="800" height="100" fill="#000" opacity=".35"/>
  <g transform="translate(80 -90) scale(.8)"><defs><linearGradient id="g5-hair" x1="0" y1="0" x2="0.4" y2="1">
      <stop offset="0" stop-color="#cbbcf9"/>
      <stop offset=".55" stop-color="#b9a6f7"/>
      <stop offset="1" stop-color="#6f6494"/>
    </linearGradient>
    <radialGradient id="g5-iris" cx="50%" cy="30%" r="70%">
      <stop offset="0" stop-color="#442082"/>
      <stop offset=".6" stop-color="#7c3aed"/>
      <stop offset="1" stop-color="#b793f5"/>
    </radialGradient>
    <linearGradient id="g5-cloth" x1="0" y1="0" x2="1" y2="1">
      <stop offset="0" stop-color="#f6f4fc"/>
      <stop offset=".6" stop-color="#f4f1fb"/>
      <stop offset="1" stop-color="#929197"/>
    </linearGradient>
    <linearGradient id="g5-blade" x1="0" y1="0" x2="1" y2="0">
      <stop offset="0" stop-color="#ffffff"/>
      <stop offset="1" stop-color="#a78bfa"/>
    </linearGradient>
    <filter id="g5-soft" x="-80%" y="-80%" width="260%" height="260%"><feGaussianBlur stdDeviation="12"/></filter></defs><ellipse cx="400" cy="470" rx="250" ry="330" fill="#a78bfa" opacity=".14" filter="url(#g5-soft)"/>
    <path d="M300 0 L500 0 L640 820 L160 820Z" fill="#fff" opacity=".025"/>
    <g><g transform="translate(400 800) scale(1.12) translate(-400 -800)"><ellipse cx="400" cy="858" rx="236" ry="40" fill="#000" opacity=".5"/>
    <path d="M182 800 L182 836 Q400 880 618 836 L618 800Z" fill="url(#g5-base)"/>
    <ellipse cx="400" cy="800" rx="218" ry="36" fill="#262038"/>
    <ellipse cx="400" cy="800" rx="218" ry="36" fill="none" stroke="#a78bfa" stroke-opacity=".55" stroke-width="2.5"/>
    <ellipse cx="400" cy="800" rx="196" ry="28" fill="none" stroke="#fff" stroke-opacity=".06" stroke-width="8"/><g>
    
    
    
    <g transform="translate(400 300)"><path d="M-66 -18 C-84 -96 84 -96 66 -18 C86 50 92.0 93.8 70.0 156.3 Q40 186.3 18 146.3 L0 170.3 L-18 146.3 Q-40 186.3 -70 156.3 C-92 93.8 -86 50 -66 -18Z" fill="url(#g5-hair)"/></g>
    
    <path d="M361.0 610 L391.0 610 L384.0 770 L360.0 770Z" fill="#1f1a2e"/>
              <path d="M356.0 718 L388.0 718 L390.0 788 Q372.0 796 350.0 790Z" fill="#442082"/>
              <path d="M409.0 610 L439.0 610 L440.0 770 L416.0 770Z" fill="#1f1a2e"/>
              <path d="M412.0 718 L444.0 718 L446.0 788 Q428.0 796 406.0 790Z" fill="#442082"/>
              
    <path d="M360 520 C332 566 304 612 292 646 Q400 672 508 646 C496 612 468 566 440 520Z" fill="url(#g5-cloth)"/>
          <path d="M379 524 L312.5 656" stroke="#9f9da3" stroke-width="2.5" opacity=".5"/><path d="M389.5 524 L356.25 656" stroke="#9f9da3" stroke-width="2.5" opacity=".5"/><path d="M400 524 L400 656" stroke="#9f9da3" stroke-width="2.5" opacity=".5"/><path d="M410.5 524 L443.75 656" stroke="#9f9da3" stroke-width="2.5" opacity=".5"/><path d="M421 524 L487.5 656" stroke="#9f9da3" stroke-width="2.5" opacity=".5"/>
          <path d="M292 646 Q400 672 508 646" stroke="#7c3aed" stroke-width="5" fill="none"/>
    
    <path d="M344 408 Q318 470 328 548" stroke="#dcd9e2" stroke-width="26" fill="none" stroke-linecap="round"/>
    <circle cx="328" cy="556" r="12" fill="#f8d5c2"/>
    
    
    <rect x="388" y="356" width="24" height="40" fill="#e4c4b2"/>
    <path d="M338 412 Q350 394 374 390 L426 390 Q450 394 462 412 L454 470 Q442 506 442 522 L358 522 Q358 506 346 470Z" fill="url(#g5-cloth)"/>
    <path d="M374 390 L400 436 L426 390" fill="#7c3aed" opacity=".9"/>
    <path d="M378 390 L400 428 L422 390" fill="#f8d5c2"/>
    <rect x="354" y="508" width="92" height="16" rx="4" fill="#7c3aed"/>
    <rect x="392" y="506" width="16" height="20" rx="3" fill="#51269a"/>
    <path d="M368 450 Q400 462 432 450" stroke="#9f9da3" stroke-width="2.5" fill="none" opacity=".6"/>
    
    
    <g transform="translate(400 300)"><g>
    <path d="M-52 -6 C-54 32 -30 62 0 72 C30 62 54 32 52 -6 C52 -60 -52 -60 -52 -6Z" fill="#f8d5c2"/>
    <path d="M-52 -6 C-52 6 -46 14 -40 18 Q0 4 40 18 C46 14 52 6 52 -6 C40 -18 -40 -18 -52 -6Z" fill="#dabbab" opacity=".55"/>
    <path d="M-34 -24 Q-22 -31 -10 -26" stroke="#786ca1" stroke-width="2.6" fill="none" stroke-linecap="round"/>
    <path d="M34 -24 Q22 -31 10 -26" stroke="#786ca1" stroke-width="2.6" fill="none" stroke-linecap="round"/>
    <g>
    <path d="M-34 2 Q-21 -14 -8 -2 Q-9 22 -21 27 Q-33 22 -34 2Z" fill="#fff"/>
    <ellipse cx="-21" cy="9" rx="11.5" ry="16" fill="url(#g5-iris)"/>
    <ellipse cx="-21" cy="11" rx="5.5" ry="8.5" fill="#160f24"/>
    <circle cx="-17" cy="2" r="4.6" fill="#fff"/>
    <circle cx="-25" cy="17" r="2.2" fill="#fff" opacity=".85"/>
    <path d="M-37 0 Q-21 -19 -6 -5" stroke="#1d1428" stroke-width="4.5" fill="none" stroke-linecap="round"/>
    <path d="M-37 0 l-6 -5" stroke="#1d1428" stroke-width="3" stroke-linecap="round"/>
    <path d="M-12 25 Q-21 29 -29 23" stroke="#5a4366" stroke-width="1.4" fill="none" opacity=".6"/>
  </g>
    <g>
    <path d="M34 2 Q21 -14 8 -2 Q9 22 21 27 Q33 22 34 2Z" fill="#fff"/>
    <ellipse cx="21" cy="9" rx="11.5" ry="16" fill="url(#g5-iris)"/>
    <ellipse cx="21" cy="11" rx="5.5" ry="8.5" fill="#160f24"/>
    <circle cx="17" cy="2" r="4.6" fill="#fff"/>
    <circle cx="25" cy="17" r="2.2" fill="#fff" opacity=".85"/>
    <path d="M37 0 Q21 -19 6 -5" stroke="#1d1428" stroke-width="4.5" fill="none" stroke-linecap="round"/>
    <path d="M37 0 l6 -5" stroke="#1d1428" stroke-width="3" stroke-linecap="round"/>
    <path d="M12 25 Q21 29 29 23" stroke="#5a4366" stroke-width="1.4" fill="none" opacity=".6"/>
  </g>
    <path d="M1 30 l2 5" stroke="#ae9588" stroke-width="1.6" stroke-linecap="round"/>
    <ellipse cx="-31" cy="33" rx="9" ry="4" fill="#f58aa4" opacity=".45"/>
    <ellipse cx="31" cy="33" rx="9" ry="4" fill="#f58aa4" opacity=".45"/>
    <path d="M-8 44 Q0 58 8 44Z" fill="#b4475a"/><path d="M-5 50 Q0 54 5 50" stroke="#f59ab0" stroke-width="2" fill="none"/>
    <path d="M-62 -4 C-70 -72 -30 -90 0 -88 C30 -90 70 -72 62 -4 L54 0 L46 -26 L38 8 L26 -24 L14 4 L4 -30 L-8 6 L-18 -26 L-30 8 L-40 -24 L-50 2Z" fill="url(#g5-hair)"/>
         <path d="M-62 -8 C-72 30 -68 74 -58 104 C-50 74 -48 30 -46 -2Z" fill="url(#g5-hair)"/>
         <path d="M62 -8 C72 30 68 74 58 104 C50 74 48 30 46 -2Z" fill="url(#g5-hair)"/>
    <path d="M-40 -56 Q0 -74 40 -56" stroke="#fff" stroke-opacity=".35" stroke-width="5" fill="none" stroke-linecap="round"/>
    <g transform="translate(44 -70) rotate(18)"><path d="M0 0 L-26 -16 L-22 14Z M0 0 L26 -16 L22 14Z" fill="#7c3aed"/><circle r="7" fill="#632ebe"/></g>
  </g></g>
    <path d="M456 408 L486.8 354.2 L488.3 284.2" stroke="#dcd9e2" stroke-width="24" fill="none" stroke-linecap="round" stroke-linejoin="round"/>
    <circle cx="488.3" cy="284.2" r="12" fill="#f8d5c2"/>
    
    
    
  </g></g></g><path d="M205.9 344.3 L208.5 353.1 L205.9 361.9 L203.3 353.1Z" fill="#fff" opacity="0.6"/><circle cx="593.2" cy="217.8" r="5.5" fill="#a78bfa" opacity="0.3"/><circle cx="338.5" cy="659.3" r="4.5" fill="#a78bfa" opacity="0.6"/><circle cx="285.7" cy="194.3" r="3.3" fill="#a78bfa" opacity="0.5"/><path d="M255.7 492.1 L258.9 502.6 L255.7 513.2 L252.5 502.6Z" fill="#fff" opacity="0.8"/><circle cx="283.9" cy="595.1" r="5.8" fill="#a78bfa" opacity="0.4"/><circle cx="309.0" cy="650.5" r="3.1" fill="#a78bfa" opacity="0.5"/><circle cx="226.1" cy="586.6" r="5.0" fill="#a78bfa" opacity="0.4"/><circle cx="630.5" cy="587.1" r="6.0" fill="#a78bfa" opacity="0.5"/><path d="M451.6 522.6 L454.9 533.6 L451.6 544.6 L448.3 533.6Z" fill="#fff" opacity="0.8"/><circle cx="516.4" cy="284.6" r="2.0" fill="#a78bfa" opacity="0.5"/><circle cx="588.1" cy="675.2" r="2.3" fill="#a78bfa" opacity="0.4"/><circle cx="628.3" cy="676.0" r="4.7" fill="#a78bfa" opacity="0.5"/><circle cx="552.7" cy="610.2" r="5.1" fill="#a78bfa" opacity="0.5"/><path d="M235.1 186.0 L236.8 191.6 L235.1 197.1 L233.4 191.6Z" fill="#fff" opacity="0.9"/><circle cx="359.2" cy="460.2" r="5.1" fill="#a78bfa" opacity="0.5"/></g>
</svg>
